ffmpeg started on 2016-11-27 at 23:58:19
Report written to "Output/NVENCh264/results/ffmpeg/old_town_cross_2160p50llhp4500k.log"
Command line:
Tools/ffmpeg/ffmpeg -benchmark -y -i Input/y4m/old_town_cross_2160p50.y4m -c:v h264_nvenc -preset llhp -b:v 4500k -an Output/NVENCh264/encoded/old_town_cross_2160p50llhp4500k.mkv
ffmpeg version N-82227-gdb23fde Copyright (c) 2000-2016 the FFmpeg developers
  built with gcc 5.4.0 (Ubuntu 5.4.0-6ubuntu1~16.04.2) 20160609
  configuration: --prefix=/home/jaroslav/ffmpeg_build --pkg-config-flags=--static --extra-cflags=-I/home/jaroslav/ffmpeg_build/include --extra-ldflags=-L/home/jaroslav/ffmpeg_build/lib --bindir=/home/jaroslav/bin --enable-gpl --enable-libass --enable-libfdk-aac --enable-libfreetype --enable-libmp3lame --enable-libopus --enable-libtheora --enable-libvorbis --enable-libvpx --enable-libx264 --enable-libx265 --enable-nvenc --enable-libmfx --enable-libxvid --enable-libgsm --enable-libopencore-amrnb --enable-version3 --enable-nonfree
  libavutil      55. 35.100 / 55. 35.100
  libavcodec     57. 66.101 / 57. 66.101
  libavformat    57. 57.100 / 57. 57.100
  libavdevice    57.  2.100 / 57.  2.100
  libavfilter     6. 66.100 /  6. 66.100
  libswscale      4.  3.100 /  4.  3.100
  libswresample   2.  4.100 /  2.  4.100
  libpostproc    54.  2.100 / 54.  2.100
Input #0, yuv4mpegpipe, from 'Input/y4m/old_town_cross_2160p50.y4m':
  Duration: 00:00:10.00, start: 0.000000, bitrate: 4976642 kb/s
    Stream #0:0: Video: rawvideo (I420 / 0x30323449), yuv420p(progressive), 3840x2160, SAR 1:1 DAR 16:9, 50 fps, 50 tbr, 50 tbn, 50 tbc
[h264_nvenc @ 0x29a1120] The variable bitrate rate-control requires the 'qmin' and/or 'qmax' option set.
Output #0, matroska, to 'Output/NVENCh264/encoded/old_town_cross_2160p50llhp4500k.mkv':
  Metadata:
    encoder         : Lavf57.57.100
    Stream #0:0: Video: h264 (h264_nvenc) (Main) (H264 / 0x34363248), yuv420p, 3840x2160 [SAR 1:1 DAR 16:9], q=-1--1, 4500 kb/s, 50 fps, 1k tbn, 50 tbc
    Metadata:
      encoder         : Lavc57.66.101 h264_nvenc
    Side data:
      cpb: bitrate max/min/avg: 0/0/4500000 buffer size: 9000000 vbv_delay: -1
Stream mapping:
  Stream #0:0 -> #0:0 (rawvideo (native) -> h264 (h264_nvenc))
Press [q] to stop, [?] for help
frame=   19 fps=0.0 q=0.0 size=       0kB time=00:00:00.00 bitrate=N/A speed=   0x    frame=   37 fps= 36 q=41.0 size=       1kB time=00:00:00.12 bitrate=  49.4kbits/s speed=0.119x    frame=   43 fps= 28 q=39.0 size=       1kB time=00:00:00.24 bitrate=  24.8kbits/s speed=0.158x    frame=   58 fps= 25 q=39.0 size=       1kB time=00:00:00.54 bitrate=  11.0kbits/s speed=0.234x    frame=   76 fps= 27 q=35.0 size=       1kB time=00:00:00.90 bitrate=   6.6kbits/s speed=0.318x    frame=   94 fps= 28 q=35.0 size=       1kB time=00:00:01.26 bitrate=   4.7kbits/s speed=0.377x    frame=  112 fps= 29 q=35.0 size=       1kB time=00:00:01.62 bitrate=   3.7kbits/s speed=0.42x    frame=  130 fps= 28 q=39.0 size=       1kB time=00:00:01.98 bitrate=   3.0kbits/s speed=0.432x    frame=  143 fps= 28 q=36.0 size=       1kB time=00:00:02.24 bitrate=   2.7kbits/s speed=0.44x    frame=  161 fps= 29 q=38.0 size=       1kB time=00:00:02.60 bitrate=   2.3kbits/s speed=0.464x    frame=  179 fps= 29 q=39.0 size=       1kB time=00:00:02.96 bitrate=   2.0kbits/s speed=0.484x    frame=  197 fps= 30 q=35.0 size=       1kB time=00:00:03.32 bitrate=   1.8kbits/s speed=0.501x    frame=  215 fps= 30 q=39.0 size=       1kB time=00:00:03.68 bitrate=   1.6kbits/s speed=0.515x    frame=  233 fps= 30 q=39.0 size=       1kB time=00:00:04.04 bitrate=   1.5kbits/s speed=0.528x    frame=  251 fps= 31 q=38.0 size=       1kB time=00:00:04.40 bitrate=   1.4kbits/s speed=0.539x    frame=  269 fps= 31 q=36.0 size=       1kB time=00:00:04.76 bitrate=   1.3kbits/s speed=0.549x    frame=  287 fps= 31 q=37.0 size=    2640kB time=00:00:05.12 bitrate=4222.7kbits/s speed=0.557x    frame=  305 fps= 31 q=41.0 size=    2640kB time=00:00:05.48 bitrate=3945.3kbits/s speed=0.564x    frame=  323 fps= 32 q=36.0 size=    2640kB time=00:00:05.84 bitrate=3702.2kbits/s speed=0.571x    frame=  341 fps= 32 q=35.0 size=    2640kB time=00:00:06.20 bitrate=3487.2kbits/s speed=0.578x    frame=  359 fps= 32 q=35.0 size=    2640kB time=00:00:06.56 bitrate=3295.9kbits/s speed=0.584x    frame=  377 fps= 32 q=35.0 size=    2640kB time=00:00:06.92 bitrate=3124.5kbits/s speed=0.588x    frame=  395 fps= 32 q=35.0 size=    2640kB time=00:00:07.28 bitrate=2970.0kbits/s speed=0.593x    frame=  413 fps= 32 q=35.0 size=    2640kB time=00:00:07.64 bitrate=2830.0kbits/s speed=0.598x    frame=  431 fps= 32 q=35.0 size=    2640kB time=00:00:08.00 bitrate=2702.7kbits/s speed=0.602x    frame=  449 fps= 33 q=35.0 size=    2640kB time=00:00:08.36 bitrate=2586.3kbits/s speed=0.606x    frame=  467 fps= 33 q=35.0 size=    2640kB time=00:00:08.72 bitrate=2479.6kbits/s speed=0.609x    frame=  473 fps= 32 q=35.0 size=    2640kB time=00:00:08.84 bitrate=2445.9kbits/s speed=0.596x    frame=  491 fps= 32 q=39.0 size=    2640kB time=00:00:09.20 bitrate=2350.2kbits/s speed= 0.6x    frame=  500 fps= 32 q=38.0 size=    2640kB time=00:00:09.38 bitrate=2305.1kbits/s speed=0.592x    frame=  500 fps= 31 q=39.0 Lsize=    5404kB time=00:00:09.98 bitrate=4435.2kbits/s speed=0.628x    
video:5400kB audio:0kB subtitle:0kB other streams:0kB global headers:0kB muxing overhead: 0.079362%
bench: utime=1.060s
bench: maxrss=1408908kB
